<svg height="219.564" width="959.991" xmlns="http://www.w3.org/2000/svg"><path d="M43.243 212.56c-16.465-2.064-26.772-7.97-34.168-19.579C5.177 186.862 0 171.295 0 165.692v-3.89l10.766-.744c5.92-.41 13.23-1.035 16.246-1.39 5.28-.622 5.506-.525 6.19 2.658 2.425 11.268 7.91 19.77 14.524 22.51 8.38 3.472 18.58-.28 22.797-8.384 2.188-4.203 2.072-13.044-.234-17.903-2.46-5.18-6.573-7.554-21.99-12.694-17.517-5.838-27.376-11.242-34.266-18.78-7.623-8.34-11.912-15.306-11.17-29.532.495-9.472 1.584-11.806 4.84-18.62 8.814-16.74 21.632-24.69 39.826-26.196 106.72-.062 181.217-.383 297.128-.383v27.65l-149.713-.234c-117.393.196-150.73.568-152.855 1.704-6.38 3.412-7.96 13.59-3.018 19.462 2.36 2.806 5.49 4.315 14.84 7.156 6.515 1.98 14.726 4.65 18.247 5.933 25.16 9.177 36.383 23.618 36.452 46.91.045 15.318-4.626 27.995-14.013 38.03-6.585 7.04-14.883 11.166-26.68 13.27-10.26 1.827-12.545 1.86-24.678.34zm123.77.205c-20.06-2.89-32.44-13.277-39.083-32.785-2.995-8.798-3.576-28.053-1.152-38.208 2.12-8.883 7.71-19.045 13.205-24.01 13.51-12.205 36.286-15.993 58.077-9.658 6.027 1.753 9.206 3.572 14.173 8.11 6.256 5.718 13.26 17.075 11.518 18.68-.48.444-6.09 1.98-12.47 3.413-11.296 2.54-11.63 2.55-12.803.417-2.594-4.72-10.01-10.827-14.07-11.59-10.974-2.058-20.275 2.178-25.26 11.505-2.345 4.387-2.608 6.52-2.607 21.173 0 14.616.267 16.793 2.59 21.142 1.426 2.667 4.242 6.023 6.26 7.46 4.02 2.862 12.427 4.147 19.032 2.908 5.202-.976 11.56-7.165 13.457-13.103.78-2.442 1.81-4.87 2.29-5.395.71-.776 23.91 5.5 25.493 6.898.252.223-.483 2.905-1.635 5.96-6.523 17.302-19.695 26.3-40.28 27.514-5.366.317-12.897.123-16.738-.43zm339.843.014c-27.748-3.896-43.03-22.78-42.862-52.968.075-13.318 1.485-20.34 5.892-29.34 4.152-8.48 14.56-18.03 23.16-21.248 19.592-7.33 45.82-4.563 60.1 6.34 13.28 10.14 20.08 31.096 17.227 53.085-2.904 22.373-13.938 36.564-32.883 42.295-7.188 2.174-21.927 3.056-30.634 1.834zm20.253-22.648c9.246-4.785 12.92-13.843 12.91-31.834-.013-14.872-2.973-22.81-10.628-28.478-6.25-4.63-19.335-4.07-25.463 1.086-7.254 6.103-8.703 10.817-8.708 28.322 0 13.87.288 16.257 2.5 20.367 2.91 5.407 6.762 9.27 10.88 10.913 4.373 1.744 14.814 1.53 18.506-.38zm257.905 22.632c-20.058-2.89-32.44-13.278-39.082-32.786-2.995-8.798-3.576-28.052-1.152-38.207 2.12-8.885 7.71-19.046 13.206-24.01 13.51-12.207 36.286-15.994 58.077-9.66 6.027 1.753 9.206 3.57 14.173 8.11 6.256 5.72 13.26 17.076 11.518 18.68-.48.444-6.093 1.98-12.473 3.414-11.294 2.538-11.63 2.55-12.8.417-2.595-4.72-10.01-10.827-14.07-11.59-10.975-2.057-20.276 2.18-25.26 11.506-2.346 4.387-2.61 6.52-2.608 21.172 0 14.616.268 16.792 2.592 21.142 1.425 2.666 4.24 6.023 6.258 7.46 4.02 2.862 12.428 4.146 19.033 2.907 5.202-.977 11.56-7.166 13.457-13.103.78-2.443 1.813-4.87 2.292-5.395.71-.778 23.91 5.5 25.493 6.897.252.223-.483 2.904-1.635 5.96-6.522 17.302-19.694 26.3-40.28 27.514-5.365.317-12.896.123-16.737-.43zm-539.273.106-.32-107.747c10.536.166 21.333.277 31.863 0v38.43h36.24v-38.43h31.132v107.75h-31.132v-44.51c-12.194.163-24.05.273-36.24 0v44.51c-4.326-.16-31.265.486-31.543 0zm155.1-44.51H454.9v44.51h-54.058s.347-38.383 0-44.51zm243.14 44.51V105.124h84.1v21.646h-50.908v16.78h42.48v24.81h-42.48v23.106h50.907v21.403h-84.1zm-51.94 0V79.83H408.365V52.345c139.708.623 294.944 0 434.652 0V79.83H623v133.04z" style="fill:#1e1e1e;fill-opacity:1"/><path d="M354.785 52.684h44.612v158.63h-44.612z" fill="#89191a" style="fill:#d40000;fill-opacity:1"/><path d="M364.297 35.98h6.266v18.148h-6.266zm18.773-.738h7.08v17.344h-7.08z" fill="#89191a" style="fill:#d40000;fill-opacity:1"/><path d="M327.462 33.895c32.333-10.53 64.62-12.634 98.572.276v4.953h-98.572v-5.23z" style="fill:#1e1e1e;fill-opacity:1"/><path d="M361.738 183.125h25.77v9.144h-25.77v-9.144zm5.736-18.705h25.77v9.145h-25.77v-9.145zm-5.984-18.954h25.77v9.145h-25.77v-9.147zm5.818-17.79h25.77v9.144h-25.77v-9.144zm-5.818-16.46h25.77v9.144h-25.77v-9.144zm6.65-17.458h25.77v9.144h-25.77v-9.144zm-6.65-18.29h25.77v9.145h-25.77v-9.14z" fill="#fff"/><path d="M398.936 52.57h2.045v158.832h-2.043zm-45.723 0h2.046v158.832h-2.048zm16.367-18.998h4.397V53.38h-4.398zm11.168-.588h4.398v19.808h-4.398z"/><path d="M353.186 212.872v-1.948l47.788.002v1.945zm.214-158.576-.017-1.682 46.953-.032.017 1.68z"/><path word-spacing="0" letter-spacing="0" font-weight="700" d="M888.762 178.925a33.036 33.036 0 0 1 2.48 7.176c.545 2.476.81 5.033.798 7.67-.03 5.955-1.715 10.666-5.055 14.13-3.356 3.466-7.884 5.183-13.586 5.154-5.767-.03-10.294-1.825-13.58-5.387-3.29-3.563-4.918-8.426-4.887-14.59a33.88 33.88 0 0 1 .706-6.825 28.639 28.639 0 0 1 2.02-6.17l7.4.037c-1.143 1.99-2 3.974-2.57 5.95a21.615 21.615 0 0 0-.867 5.914c-.02 3.673.997 6.514 3.047 8.52 2.035 1.99 4.96 2.996 8.778 3.016 3.785.02 6.712-.923 8.782-2.83 2.07-1.905 3.114-4.623 3.132-8.153a19.549 19.549 0 0 0-.154-2.66c-.123-.83-.31-1.574-.563-2.23l-6.948-.036-.028 5.63-6.183-.03.073-14.373 17.202.087m-19.55-32.68c-1.655-1.096-2.91-2.388-3.765-3.878-.87-1.505-1.302-3.153-1.293-4.94.016-3.084.978-5.426 2.887-7.03 1.91-1.603 4.678-2.396 8.303-2.377l16.338.08-.043 8.625-13.99-.07a7.91 7.91 0 0 0-.647-.028 15.043 15.043 0 0 0-.96-.03c-1.9-.01-3.275.264-4.124.818-.865.555-1.3 1.455-1.307 2.7-.01 1.63.654 2.895 1.99 3.796 1.338.886 3.276 1.35 5.815 1.396l13.176.067-.043 8.625-13.99-.073c-2.97-.015-4.88.23-5.73.738-.865.506-1.3 1.415-1.307 2.724-.008 1.644.665 2.917 2.017 3.82 1.337.9 3.26 1.357 5.767 1.37l13.2.067-.044 8.624-26.83-.136.043-8.624 3.93.02c-1.513-1.062-2.65-2.273-3.408-3.635-.76-1.377-1.136-2.888-1.127-4.533.01-1.853.465-3.488 1.366-4.905.902-1.416 2.16-2.488 3.778-3.214m17.048-40.493c.01-1.837-.654-3.238-1.99-4.203-1.337-.98-3.283-1.478-5.84-1.49-2.554-.014-4.505.463-5.85 1.43-1.348.952-2.026 2.346-2.035 4.183-.01 1.836.662 3.253 2.015 4.25 1.336.98 3.274 1.478 5.813 1.49 2.54.014 4.49-.463 5.853-1.43 1.347-.984 2.025-2.394 2.034-4.23m-17.397 5.613c-1.56-1.19-2.702-2.505-3.43-3.947-.743-1.44-1.11-3.096-1.1-4.964.016-3.308 1.348-6.016 3.994-8.127 2.63-2.11 6.013-3.156 10.15-3.135 4.136.02 7.516 1.1 10.14 3.237 2.61 2.138 3.905 4.86 3.888 8.165-.01 1.87-.385 3.52-1.127 4.954-.758 1.433-1.923 2.737-3.494 3.91l3.88.02-.043 8.577-37.274-.19.044-8.576 14.373.074m-12.727-27.038.047-9.223 13.63.07.07-13.608-13.63-.07.046-9.225 35.765.183-.047 9.222-15.165-.078-.07 13.608 15.164.077-.048 9.222-35.767-.183" style="line-height:125%;-inkscape-font-specification:'Sans Bold';fill:#1e1e1e;fill-opacity:1" font-family="Sans"/><path d="M928.227 219.304c-.955-.31-3.093-1.968-4.898-3.795-1.878-1.9-2.784-2.492-4.49-2.937-1.21-.316-1.795-.697-2.287-1.493-.358-.58-.444-.936-.55-2.29-.104-1.292-.224-1.82-.62-2.714-.863-1.958-.807-3.642.238-7.145l.553-1.85.04-7.044c.023-3.874.124-8.008.224-9.187.205-2.4.103-4.836-.25-5.93-.247-.77-.733-1.262-2.66-2.694-1.45-1.077-3.496-3.474-4.454-5.22a83.759 83.759 0 0 0-1.603-2.77c-1.18-1.933-1.366-2.35-2.467-5.557-1.156-3.366-1.793-5.785-2.113-8.024-.16-1.12-.438-2.117-.984-3.53-.87-2.25-.882-2.298-1.64-6.316-.5-2.642-.578-3.38-.674-6.43-.084-2.648-.186-3.8-.442-4.977-.183-.844-.5-2.48-.703-3.637-.204-1.157-.45-2.26-.548-2.45-.1-.19-.543-.69-.988-1.112-.55-.52-.863-.96-.977-1.377-.214-.783-.22-7.336-.01-9.187.232-2.032.692-4.162 1.44-6.66.915-3.07 1.07-4.1 1.073-7.12 0-2.56-.013-2.67-.817-6.508-.66-3.144-.842-4.354-.945-6.203-.125-2.253-.424-3.876-1.214-6.584-.195-.67-.37-1.93-.465-3.367-.18-2.72-.323-3.405-.93-4.487-.528-.94-1.938-5.57-2.994-9.83-.87-3.504-1.005-3.953-1.443-4.72-.547-.956-1.617-1.835-3.893-3.197-1.93-1.155-2.377-1.36-4.9-2.268-2.184-.784-6.85-3.002-8.325-3.955-1.836-1.188-2.616-2.435-2.62-4.194-.006-1.525.26-2.105 1.504-3.286 1.658-1.575 2.487-1.917 5.364-2.213 2.074-.213 2.546-.214 4.648-.005 2 .2 2.704.346 4.865 1.02 2.7.843 4.26 1.055 7.864 1.068.83.002 2.345.138 3.37.3 1.022.162 2.893.366 4.156.454 4.942.345 8.12.705 9.642 1.092.963.244 1.367.44 1.914.922.38.336 1.026.8 1.433 1.03.407.23 1.372.79 2.144 1.242 2.98 1.75 4.935 2.47 6.708 2.466 1.114 0 2.258-.454 2.888-1.14.542-.592 1.108-.85 1.87-.848.89 0 5.734 2.295 7.25 3.437 1.324.996 2.058 1.378 3.74 1.947 1.55.523 2.748 1.28 3.358 2.123.542.75 1.73 3.54 2.077 4.883.14.54.456 1.382.702 1.87.246.486.63 1.422.853 2.078.397 1.166.407 1.292.437 5.404.035 4.798-.13 3.945 1.856 9.528 1.835 5.158 2.298 8.483 2.157 15.473-.098 4.863-.238 5.746-1.263 7.937-.534 1.143-.778 1.923-1.01 3.233-.542 3.047-1.39 5.01-3.18 7.358-.46.605-1.056 1.55-1.324 2.098-.267.55-1.116 2.098-1.884 3.44-1.605 2.8-1.54 2.453-1.104 6.016.386 3.142.542 6.275.34 6.8-.12.31-.404.498-1.23.813-2.073.793-2.922 2.306-2.926 5.215 0 .758-.07 1.62-.157 1.914-.086.294-.434 1.913-.773 3.597-.34 1.686-.848 3.89-1.13 4.9-.663 2.37-1.563 6.287-1.76 7.658-.222 1.527-.212 12.557.01 12.987.096.184.704.886 1.353 1.56.65.673 1.573 1.825 2.054 2.56.678 1.034 1.105 1.5 1.896 2.067.562.403 1.54 1.22 2.176 1.814.632.595 1.46 1.314 1.84 1.598.38.284 1.176.97 1.77 1.522 2.757 2.56 5.198 4.53 6.91 5.57.742.453 1.764 1.092 2.27 1.42.508.33 1.75.97 2.758 1.42 2.42 1.086 2.55 1.22 2.667 2.73.054.702.195 1.354.34 1.578.584.897.77 3.705.36 5.423-.34 1.422-1.13 2.438-4.017 5.17-1.805 1.708-1.972 2.044-2.074 4.183-.096 2.015-.4 2.934-1.537 4.633-1.677 2.507-3.04 3.525-6.13 4.578-2.31.79-4.348.687-4.845-.243-.087-.162-.158-.7-.158-1.197 0-1.244.996-4.023 1.9-5.295.815-1.152 1.357-2.214 1.673-3.278.314-1.058.134-1.58-.76-2.194-.873-.602-1.094-.96-1.512-2.44-.19-.673-.578-1.615-.86-2.094-.803-1.353-2.9-3.366-4.422-4.244a65.416 65.416 0 0 1-2.886-1.8c-.87-.576-1.72-1.048-1.886-1.048-1.29 0-1.707 1.598-1.063 4.084.197.762.324 1.723.324 2.466 0 1.68.2 2.59 1.01 4.593.617 1.525.7 1.877.725 3 .03 1.514-.042 1.635-1.352 2.23-1.433.65-1.598 1.35-.746 3.17.543 1.16 1.412 2.05 2.665 2.737 1.633.896 1.895 1.357 1.96 3.456.062 1.95-.22 2.83-1.074 3.353-1.377.846-4.976 1.333-6.403.867zm8.63-124.633c.13-.28.41-1.367.62-2.414.21-1.047.556-2.558.77-3.358.237-.877.393-1.864.393-2.483 0-1.257-.803-4.504-1.67-6.744-1.066-2.757-1.73-4.593-2.182-6.04-.433-1.38-1.023-2.342-1.44-2.342-.467 0-.544.642-.587 4.868-.022 2.334-.13 4.966-.24 5.85-.374 3.035-.315 3.64.57 5.896.43 1.094.99 2.48 1.248 3.08.256.6.642 1.63.858 2.292.216.662.495 1.36.62 1.552.33.505.757.44 1.04-.16z" stroke="#222" stroke-width=".153"/><path d="M928.458 219.337c-.253-.095-1.045-.6-1.76-1.126a49.613 49.613 0 0 0-1.734-1.23c-.237-.15-.846-.784-1.355-1.407-1.44-1.76-2.89-2.678-5.146-3.26-.737-.188-1.62-.894-1.972-1.573-.14-.27-.268-1.052-.316-1.928-.068-1.242-.163-1.66-.604-2.654-.902-2.032-.856-3.68.202-7.23l.552-1.85.036-6.814c.02-3.748.12-8.02.227-9.493.14-1.975.15-3.092.03-4.255-.213-2.06-.53-2.622-2.134-3.746-1.24-.87-3.675-3.3-4.442-4.433-.245-.36-.745-1.208-1.112-1.882a67.278 67.278 0 0 0-1.486-2.56c-1.068-1.736-1.327-2.35-2.535-6.015-1.052-3.193-1.665-5.6-1.94-7.622-.1-.743-.445-1.928-.916-3.147-.865-2.235-.878-2.287-1.637-6.303-.5-2.642-.577-3.38-.673-6.43-.084-2.648-.186-3.8-.442-4.977-.183-.843-.5-2.477-.702-3.63-.203-1.156-.47-2.293-.593-2.528-.123-.235-.573-.76-1-1.167-.534-.51-.83-.938-.948-1.378-.27-.993-.095-8.992.232-10.744.333-1.78.76-3.484 1.31-5.212.785-2.474.982-3.857.977-6.883-.005-2.734-.01-2.786-.804-6.507-.66-3.096-.823-4.183-.94-6.213-.14-2.426-.426-3.967-1.236-6.634-.183-.606-.356-1.86-.452-3.292-.182-2.695-.33-3.44-.868-4.38-.375-.652-.943-2.353-1.817-5.434-.215-.758-.56-1.947-.77-2.643-.208-.696-.55-2.04-.757-2.986-.804-3.652-1.278-4.418-3.747-6.07-2.08-1.39-3.697-2.204-6.124-3.083-2.635-.955-7.738-3.41-8.896-4.28-1.736-1.304-2.435-2.718-2.215-4.48.125-1.007.47-1.517 1.855-2.746 1.768-1.57 2.892-1.93 6.425-2.067 2.86-.11 4.32.076 7.075.9 3.87 1.156 3.925 1.166 7.26 1.274 1.735.057 3.902.226 4.88.38.97.154 2.623.322 3.676.375 1.053.05 2.34.162 2.86.244.52.082 1.897.213 3.062.292 2.05.138 4.643.604 5.312.953.18.093.613.43.963.75s1.005.766 1.455.99c.45.227 1.385.75 2.078 1.168 2.75 1.65 4.84 2.424 6.554 2.424 1.282 0 2.132-.327 3.184-1.226 1.314-1.123 1.628-1.093 4.926.477 1.66.792 3.145 1.63 4.1 2.315 1.19.854 1.843 1.196 3.175 1.665 2.933 1.034 3.62 1.66 4.743 4.33.425 1.007.873 2.22.997 2.697.123.476.497 1.456.83 2.178 1.1 2.378 1.138 2.623 1.16 7.242l.02 4.134.78 2.298a302.17 302.17 0 0 0 1.484 4.26c1.363 3.8 1.854 7.836 1.73 14.233-.097 4.835-.237 5.706-1.28 7.953-.503 1.086-.77 1.933-.986 3.14-.163.908-.406 2.03-.54 2.493-.364 1.267-1.54 3.44-2.64 4.887-.54.707-1.12 1.603-1.29 1.99-.17.387-.842 1.64-1.496 2.785-2.088 3.655-1.993 3.29-1.603 6.187.125.926.308 2.903.405 4.393.16 2.456.154 2.745-.077 3.098-.14.215-.444.435-.674.49-1.255.3-2.314 1.21-2.916 2.504-.326.7-.405 1.15-.486 2.755a24.864 24.864 0 0 1-.505 3.755c-.223 1.01-.615 2.803-.87 3.982-.255 1.18-.63 2.73-.834 3.445-.56 1.97-1.46 5.975-1.62 7.23-.197 1.498-.2 12.388-.006 12.898.083.217.604.824 1.158 1.35.554.524 1.427 1.573 1.94 2.33 1.17 1.733 1.514 2.108 2.616 2.86.487.335 1.454 1.137 2.147 1.784a45.704 45.704 0 0 0 2.175 1.9c.503.4 1.59 1.346 2.416 2.104 3.508 3.22 6.448 5.242 10.482 7.205 2.757 1.34 2.792 1.376 2.792 2.816 0 .604.12 1.04.47 1.72.615 1.193.78 3.255.386 4.798-.37 1.452-1.084 2.423-3.546 4.83-1.35 1.322-2.29 2.37-2.434 2.714-.148.35-.235 1.036-.235 1.835 0 2.274-.617 3.822-2.425 6.076-1.406 1.753-2.414 2.404-5.145 3.325-1.217.41-1.766.513-2.73.513-1.13 0-1.235-.027-1.654-.446-.393-.393-.448-.556-.448-1.347 0-1.312.944-3.814 2.073-5.493.54-.802 1.056-1.814 1.33-2.607.444-1.288.445-1.298.17-1.86-.154-.312-.573-.763-.93-1.002-.757-.5-.988-.89-1.34-2.254-.428-1.66-1.075-2.684-2.75-4.356-1.22-1.218-1.86-1.715-3.11-2.42a47.799 47.799 0 0 1-2.8-1.723c-.676-.46-1.39-.834-1.593-.834-.2 0-.57.174-.824.387-.84.705-.89 1.93-.188 4.462.09.322.163 1.142.164 1.82 0 1.705.232 2.814.933 4.465.684 1.608 1.033 3.42.81 4.2-.144.502-.3.623-1.494 1.147-.81.355-1.21 1.023-1.093 1.816.23 1.542 1.604 3.434 3.016 4.15 1.04.526 1.724 1.18 1.95 1.862.123.377.175 1.155.14 2.14-.056 1.65-.213 2.046-1.057 2.67-1.046.773-4.943 1.433-6.04 1.023zm8.234-124.12c.372-.41.566-1.025.956-3.024.197-1.01.536-2.49.752-3.29.237-.88.393-1.86.393-2.482 0-1.22-.773-4.39-1.6-6.552-.816-2.142-1.838-4.98-2.23-6.202-.413-1.28-.678-1.828-1.078-2.228-.4-.4-.7-.375-1.002.087-.218.333-.25.87-.226 3.968.015 1.97-.043 4.158-.128 4.86-.433 3.575-.505 4.808-.323 5.493.1.376.762 2.14 1.47 3.917.71 1.777 1.396 3.583 1.523 4.01.216.726.87 1.713 1.133 1.713.064 0 .225-.12.36-.268z" stroke="#222" stroke-width=".153"/><path d="M926.487 217.922c-1.36-.983-2.245-1.758-2.853-2.495-1.35-1.636-2.887-2.63-4.927-3.184-1.714-.464-2.27-1.273-2.42-3.524-.085-1.29-.184-1.713-.626-2.68-.504-1.107-.522-1.21-.505-2.91.01-1.074.108-2.058.248-2.525.127-.42.416-1.42.643-2.22l.413-1.454.055-7.427c.03-4.085.127-8.22.214-9.188.17-1.885.023-4.798-.28-5.57-.31-.795-.765-1.285-1.974-2.133-1.65-1.157-3.922-3.604-4.86-5.24-.417-.722-1.194-2.05-1.73-2.95-1.392-2.35-1.496-2.576-2.504-5.46-1.24-3.56-1.978-6.287-2.192-8.123-.155-1.332-.404-2.236-1.096-3.975-.443-1.112-.828-2.474-1.13-3.986-.952-4.802-1.06-5.66-1.06-8.352 0-2.238-.062-2.883-.47-4.995-.26-1.335-.607-3.21-.774-4.17-.355-2.04-.495-2.354-1.45-3.25-.39-.37-.805-.888-.92-1.153-.306-.714-.422-4.203-.238-7.174.185-3 .668-5.688 1.546-8.604.92-3.056 1.12-4.348 1.13-7.244.01-2.465-.01-2.62-.783-6.357-.815-3.934-1.097-5.93-1.103-7.808-.002-.76-.186-1.763-.633-3.446-.813-3.06-.857-3.318-1.034-6.033-.15-2.268-.153-2.288-.836-3.674-.378-.767-.73-1.6-.784-1.853-.054-.253-.332-1.218-.618-2.144-.82-2.652-1.552-5.354-1.994-7.35-.69-3.118-1.34-4.125-3.673-5.684-2.3-1.537-3.652-2.208-6.322-3.137-.95-.33-3.197-1.32-4.993-2.198-3.492-1.708-4.573-2.478-5.48-3.903-.384-.607-.43-.82-.43-1.956v-1.27l1.225-1.278c1.566-1.632 2.45-2.11 4.668-2.53 3.217-.608 5.957-.346 10.127.97 2.787.88 3.415.98 6.87 1.076 1.868.052 3.538.19 4.67.39.968.167 2.28.305 2.913.306.634 0 1.978.103 2.986.228a95.95 95.95 0 0 0 3.9.38c1.137.083 2.74.316 3.56.517 1.335.328 1.57.44 2.238 1.064.41.383 1.116.884 1.57 1.112.453.228 1.53.826 2.394 1.33 2.91 1.694 5.09 2.4 6.852 2.218.963-.1 1.792-.5 2.75-1.33 1.124-.973 1.57-.91 4.88.68 1.554.746 3.173 1.65 3.813 2.126 1.335.996 2.07 1.378 3.62 1.882 2.35.764 3.235 1.57 4.224 3.85.37.854.86 2.158 1.084 2.897.226.74.585 1.69.8 2.11.213.422.56 1.25.77 1.84.365 1.017.39 1.297.49 5.587l.105 4.517.85 2.45a229.069 229.069 0 0 0 1.307 3.675c1.36 3.65 2.05 9.995 1.72 15.822-.187 3.313-.41 4.393-1.29 6.285-.53 1.132-.763 1.898-1.013 3.31-.18 1.01-.463 2.25-.632 2.756-.386 1.16-1.542 3.19-2.64 4.64-.467.615-.987 1.43-1.156 1.814-.17.382-.97 1.853-1.774 3.27-.805 1.416-1.5 2.805-1.545 3.086-.043.28.06 1.613.23 2.96a71.94 71.94 0 0 1 .415 4.75c.118 2.616.178 2.467-1.194 2.98-1.88.703-2.873 2.33-2.88 4.717 0 .734-.1 1.782-.222 2.33-.122.547-.503 2.373-.848 4.057-.344 1.685-.796 3.63-1.004 4.32-.414 1.375-.95 3.598-1.52 6.296-.348 1.647-.37 2.065-.412 8.192-.046 6.428-.045 6.46.29 6.993.186.295.673.822 1.083 1.172.41.35 1.18 1.28 1.713 2.067 1.196 1.767 1.675 2.29 2.807 3.065.488.334 1.28.99 1.76 1.46.48.468 1.476 1.33 2.213 1.914.737.585 1.34 1.117 1.34 1.182 0 .066.524.56 1.165 1.1 2.7 2.265 4.303 3.563 4.806 3.888 3.073 1.985 4.348 2.72 6.05 3.49 1.094.495 2.11 1.04 2.26 1.21.19.22.266.573.266 1.224 0 .736.103 1.127.535 2.003.517 1.048.537 1.152.537 2.808 0 1.39-.06 1.86-.312 2.45-.53 1.235-1.58 2.542-3.44 4.275-2.404 2.243-2.577 2.56-2.69 4.904-.085 1.713-.13 1.927-.642 2.985-1.046 2.168-2.75 4.093-4.37 4.94-1.878.98-3.572 1.483-4.997 1.483-1.053 0-1.34-.054-1.673-.317-.36-.282-.404-.42-.404-1.286 0-1.274.865-3.808 1.7-4.98.92-1.286 1.815-3.2 1.922-4.096.112-.952-.092-1.337-1.065-2.006-.712-.49-.957-.94-1.468-2.7-.69-2.384-2.728-4.608-5.88-6.427a52.49 52.49 0 0 1-2.725-1.697c-1.338-.91-1.73-.997-2.343-.514-.925.726-1.09 1.954-.548 4.03.174.662.37 2.087.44 3.206.118 1.9.166 2.116.848 3.832.76 1.91 1.067 3.716.733 4.31-.086.155-.595.493-1.13.75-.762.37-1.034.595-1.253 1.043-.265.544-.267.617-.023 1.453.483 1.668 1.61 3.1 2.99 3.8 1.16.587 1.646 1.085 1.903 1.948.473 1.595.155 3.593-.684 4.3-.25.208-1.09.592-1.875.853-1.198.4-1.65.472-2.876.47l-1.455-.007-1.97-1.427zm10.57-123.126c.183-.337.51-1.508.725-2.603.216-1.093.566-2.634.778-3.422.213-.788.386-1.823.386-2.3 0-1.093-.71-4.022-1.507-6.22-.34-.926-1.1-3.062-1.696-4.746-1.224-3.463-1.496-4.04-2.06-4.362-.37-.212-.422-.204-.745.12-.34.344-.348.407-.3 3.32.024 1.634-.028 3.646-.118 4.473-.09.828-.263 2.557-.385 3.845-.26 2.747-.27 2.696 1.4 6.83.55 1.356 1.197 3.047 1.442 3.757.71 2.068 1.42 2.515 2.075 1.312z" stroke="#222" stroke-width=".153"/><path d="M928.534 219.206c0-.085-.082-.153-.182-.153-.1 0-.565-.296-1.033-.66-.47-.362-1.275-.95-1.79-1.307-.513-.356-1.29-1.093-1.726-1.636-1.376-1.718-2.913-2.742-4.84-3.226-1.822-.457-2.37-1.2-2.535-3.427-.088-1.18-.216-1.714-.68-2.83-.57-1.364-.573-1.387-.5-3.062.06-1.38.177-2.035.653-3.6l.583-1.915.136-7.426c.075-4.086.15-9.047.167-11.026.03-3.46.016-3.627-.32-4.358-.45-.98-.655-1.195-1.947-2.075-1.048-.71-2.833-2.45-3.932-3.825-.302-.38-.91-1.343-1.35-2.143-.44-.8-1.236-2.178-1.77-3.062-.797-1.322-1.174-2.206-2.12-4.976-.632-1.853-1.193-3.576-1.246-3.828-.053-.253-.263-1.142-.466-1.975-.204-.834-.374-1.764-.38-2.067-.01-.746-.43-2.204-1.205-4.207-1.19-3.077-2.133-9.056-2.137-13.57-.002-1.06-.166-2.31-.607-4.594a220.317 220.317 0 0 1-.714-3.827c-.172-1.097-.44-1.583-1.36-2.466-.785-.755-.875-.91-1.012-1.747-.197-1.204-.194-5.678.007-7.807.208-2.203.755-4.864 1.528-7.423.91-3.017 1.118-4.57 1.03-7.718-.067-2.334-.144-2.94-.705-5.53-.81-3.738-1.09-5.636-1.092-7.354 0-1.354-.235-2.54-1.226-6.196-.19-.7-.367-2.045-.455-3.445-.16-2.544-.243-2.93-.92-4.233-.26-.495-.717-1.743-1.02-2.774-1.257-4.277-1.76-6.117-2.213-8.077-.645-2.794-.943-3.526-1.83-4.495-1.472-1.61-4.823-3.56-8.184-4.76-2.1-.75-5.855-2.47-7.656-3.504-1.233-.71-2.718-2.057-2.99-2.714-.102-.25-.247-.45-.32-.45-.075 0-.135-.555-.135-1.232v-1.23l1.297-1.345c.816-.848 1.597-1.498 2.11-1.758 1.257-.636 3.556-1.078 5.626-1.082 2.09-.004 3.642.277 6.652 1.206 1.183.366 2.427.745 2.764.844.336.1 2.197.237 4.134.308 2.028.075 4.073.234 4.823.376.716.135 1.99.28 2.833.322.842.042 2.53.178 3.75.302 1.222.123 2.945.287 3.83.364.883.076 2.256.292 3.05.48 1.26.296 1.532.42 2.144.986.385.356 1.183.91 1.772 1.232a133 133 0 0 1 2.45 1.387c4.392 2.555 7.642 2.788 9.636.69.404-.424.542-.472 1.36-.472.763 0 1.1.098 2.077.608.64.335 1.752.875 2.468 1.2.717.327 1.82.99 2.45 1.473 1.388 1.06 1.984 1.38 3.657 1.943 2.554.864 3.414 1.668 4.417 4.132a53.14 53.14 0 0 1 1.103 3c.25.774.606 1.7.788 2.06.918 1.797.953 2.026 1.055 6.866l.096 4.518.706 2.067a339.81 339.81 0 0 0 1.41 4.03c1.235 3.435 1.74 6.628 1.88 11.895.14 5.293-.222 8.1-1.336 10.34-.463.932-.704 1.712-.992 3.215-.21 1.092-.52 2.402-.69 2.912-.386 1.164-1.44 3.025-2.508 4.427a16.84 16.84 0 0 0-1.395 2.226c-.313.632-1.104 2.08-1.754 3.215-1.33 2.322-1.605 3.018-1.473 3.724.29 1.552.58 4.485.658 6.69.1 2.81.13 2.717-.947 3.063-1.41.454-2.453 1.57-2.913 3.118-.126.423-.227 1.37-.227 2.123 0 .936-.117 1.824-.374 2.844a38.524 38.524 0 0 0-.554 2.554c-.252 1.51-.677 3.366-1.282 5.59-.622 2.28-1.422 5.71-1.613 6.906-.074.472-.153 3.682-.174 7.135-.045 7.2-.14 6.677 1.455 8.053.485.418 1.275 1.374 1.836 2.22 1.053 1.592 1.508 2.077 2.88 3.073.48.348 1.27 1.022 1.758 1.497.487.476 1.23 1.12 1.654 1.433.422.313 1.15.94 1.616 1.395 1.63 1.59 5.804 5.02 6.612 5.44.26.133.96.563 1.557.954.596.39 2.257 1.297 3.69 2.013l2.604 1.3.082 1.15c.066.933.19 1.35.65 2.22.546 1.033.566 1.13.567 2.63.002 1.524-.013 1.586-.64 2.833-.567 1.132-.902 1.535-2.966 3.572-1.28 1.263-2.45 2.538-2.602 2.833-.2.388-.3 1.044-.366 2.373-.082 1.65-.143 1.946-.588 2.893-1.058 2.256-2.91 4.297-4.625 5.105-2.03.956-3.354 1.333-4.705 1.34-1.11.004-1.3-.037-1.607-.345-.286-.285-.35-.51-.342-1.226.013-1.29.945-3.782 1.988-5.316 1.055-1.552 1.647-2.974 1.665-4.003.015-.886-.17-1.174-1.244-1.913-.602-.415-.678-.552-1.124-2.01-.926-3.034-2.864-5.218-6.346-7.153a33.56 33.56 0 0 1-2.067-1.3c-1.886-1.295-2.376-1.373-3.18-.507-.71.763-.81 1.876-.33 3.64.187.687.36 1.977.434 3.215.125 2.12.21 2.46 1.176 4.746.314.74.44 1.33.49 2.302.074 1.47.075 1.47-1.074 1.893-1.476.545-1.84 1.615-1.133 3.333.52 1.263 1.326 2.273 2.303 2.884.472.294 1.08.674 1.354.843.788.49 1.185 1.45 1.185 2.87 0 2.133-.5 2.833-2.437 3.42-.723.218-1.38.46-1.46.537-.2.193-2.994.18-2.994-.013zm8.302-123.836c.44-.506.594-.967 1.04-3.14.245-1.2.597-2.698.78-3.33.735-2.517.32-4.94-1.816-10.64-.63-1.685-1.377-3.74-1.657-4.565-.587-1.73-.97-2.415-1.51-2.704-.32-.174-.423-.17-.64.01-.564.466-.636.997-.554 4.034.06 2.26.014 3.486-.2 5.372-.156 1.344-.284 3.202-.286 4.128l-.004 1.684.96 2.373a180.25 180.25 0 0 1 2.215 5.725c.224.615.847 1.32 1.168 1.32.148 0 .374-.12.503-.27z" stroke="#222" stroke-width=".153"/><path d="M928.815 219.244c-.028-.063-.24-.218-.47-.345-.84-.463-3.36-2.354-3.852-2.89l-1.242-1.362c-1.007-1.106-2.353-1.968-3.654-2.343-1.578-.454-2.008-.673-2.444-1.245-.47-.618-.703-1.555-.708-2.852-.003-.74-.114-1.22-.468-2.027-.97-2.213-.953-3.547.1-7.06l.564-1.887.033-6.735c.02-3.706.12-8.047.227-9.647.143-2.143.152-3.318.033-4.46-.23-2.208-.604-2.84-2.406-4.046-1.788-1.197-3.888-3.575-5.13-5.81-.446-.8-1.253-2.186-1.794-3.08-.8-1.32-1.197-2.238-2.117-4.89-.623-1.796-1.21-3.65-1.302-4.117a24.747 24.747 0 0 0-.39-1.617c-.123-.42-.323-1.472-.445-2.335-.15-1.05-.43-2.11-.854-3.214-.925-2.41-.99-2.65-1.69-6.287-.588-3.046-.65-3.61-.752-6.768-.095-2.962-.176-3.767-.58-5.742a168.2 168.2 0 0 1-.7-3.635c-.296-1.71-.553-2.236-1.478-3.015-1.075-.907-1.112-1.13-1.028-6.135.064-3.8.11-4.41.484-6.254.227-1.123.686-2.95 1.02-4.057.977-3.248 1.124-4.237 1.12-7.527v-2.91l-.8-3.75c-.654-3.08-.823-4.198-.945-6.243-.145-2.455-.427-3.96-1.234-6.603-.187-.61-.36-1.85-.456-3.292-.184-2.73-.322-3.403-.932-4.546-.426-.8-.802-1.932-1.75-5.27-.217-.758-.564-1.948-.772-2.643-.208-.697-.55-2.04-.758-2.987-.76-3.45-1.19-4.26-2.97-5.6-2.19-1.65-4.285-2.74-7.377-3.833-1.998-.707-6.618-2.902-8.024-3.813-.997-.646-2.324-2.045-2.466-2.6-.05-.19-.15-.345-.225-.345-.076 0-.137-.413-.137-.918 0-.51.068-.92.153-.92.083 0 .152-.11.152-.245 0-.37 2.005-2.364 2.957-2.94.843-.512 3.08-1.093 4.24-1.103.4-.004.476-.04.304-.154-.158-.1.22-.15 1.195-.15.783-.002 1.39.052 1.35.118-.04.067.524.202 1.254.302.73.1 2.294.47 3.473.82 3.91 1.17 3.953 1.177 7.293 1.286 1.74.056 3.898.225 4.88.38.968.154 2.622.324 3.675.377 1.053.053 2.34.163 2.86.244.52.08 1.907.21 3.084.29 2.09.14 4.62.614 5.386 1.008.21.108.588.413.84.677.25.263 1.042.796 1.76 1.184.717.388 1.86 1.03 2.542 1.43.68.398 1.886.984 2.68 1.3 1.188.477 1.686.59 2.836.652 1.792.094 2.63-.17 3.805-1.2.703-.615.97-.757 1.43-.757.793 0 5.457 2.237 6.843 3.282 1.417 1.068 2.228 1.51 3.522 1.924 1.552.496 2.77 1.184 3.434 1.937.58.658 1.994 3.804 2.23 4.953.06.295.44 1.294.845 2.22 1.107 2.532 1.114 2.575 1.14 7.197l.02 4.134.864 2.527c.474 1.39 1.14 3.32 1.48 4.288 1.313 3.77 1.764 7.484 1.65 13.628-.09 4.876-.228 5.746-1.268 7.95-.505 1.074-.757 1.877-.984 3.14-.167.932-.413 2.074-.545 2.537-.342 1.195-1.476 3.286-2.544 4.693a19.678 19.678 0 0 0-1.58 2.52 67.54 67.54 0 0 1-1.497 2.757c-1.86 3.224-1.836 3.12-1.42 6.184.38 2.785.61 6.63.426 7.035-.1.222-.478.46-1.074.677-2.098.764-3.093 2.56-3.093 5.582 0 .69-.07 1.497-.156 1.79-.086.295-.47 2.07-.85 3.945-.382 1.874-.8 3.7-.927 4.056-.212.59-.98 3.706-1.535 6.238-.44 2.005-.505 3.127-.52 9.02-.015 6.874-.146 6.198 1.525 7.823.563.547 1.41 1.58 1.882 2.297.908 1.378 1.748 2.26 2.876 3.026.38.257.965.755 1.302 1.107.337.35 1.06.99 1.608 1.42.547.43 1.482 1.234 2.076 1.787 2.572 2.39 5.554 4.794 6.958 5.608.547.317 1.402.85 1.9 1.186.498.336 1.953 1.11 3.234 1.723 2.53 1.21 2.603 1.285 2.41 2.47-.06.378.057.78.475 1.626.306.62.557 1.257.558 1.42.002.246.027.256.15.065.102-.156.15.27.15 1.34.003.946-.057 1.57-.15 1.57-.084 0-.152.105-.152.235 0 .388-.764 1.777-1.47 2.675-.365.463-1.395 1.524-2.29 2.358-2.33 2.172-2.4 2.303-2.537 4.636-.104 1.76-.156 2-.665 3.072-1.134 2.388-2.857 4.265-4.737 5.16-2.798 1.334-5.41 1.695-6.102.842-.254-.313-.29-.524-.218-1.293.126-1.358.983-3.493 2.032-5.062 1.036-1.55 1.827-3.63 1.663-4.376-.12-.552-.687-1.238-1.37-1.66-.534-.33-.75-.768-1.213-2.452-.293-1.066-1.144-2.462-2.277-3.737-.85-.956-1.913-1.73-4.854-3.536-.688-.42-1.604-.99-2.037-1.263-.86-.545-1.427-.62-2.09-.276-.997.514-1.24 2.203-.647 4.472.206.787.328 1.723.33 2.526.003 1.622.286 2.932.98 4.546.61 1.414.928 3.062.73 3.773-.102.37-.274.513-.88.733-.83.3-1.537.96-1.692 1.58-.255 1.015.824 3.45 1.95 4.4.305.257.994.714 1.53 1.015 1.32.74 1.667 1.4 1.667 3.183 0 1.295-.27 2.168-.812 2.617-.276.228-2.815 1.097-3.207 1.097-.157 0-.243.07-.19.154.06.097-.326.153-1.05.153-.63 0-1.168-.05-1.196-.114zm8.104-123.797c.45-.484.61-.967 1.116-3.407.245-1.18.58-2.626.745-3.216.727-2.593.25-5.173-2.1-11.33a129.305 129.305 0 0 1-1.324-3.675c-.64-1.898-.98-2.534-1.515-2.82-.49-.262-.85-.172-1.203.302-.268.36-.295.737-.336 4.67-.023 2.35-.133 5-.243 5.884-.11.885-.206 2.194-.213 2.91-.013 1.264.017 1.376 1.03 3.904.572 1.43 1.34 3.42 1.704 4.416.906 2.48 1.585 3.164 2.34 2.36z" stroke="#222" stroke-width=".153"/><path d="M928.51 218.705c-1.69-1.03-3.726-2.665-4.42-3.55-1.28-1.627-2.755-2.607-4.758-3.16-1.2-.33-1.933-.864-2.395-1.747-.143-.272-.283-1.083-.343-1.99-.086-1.288-.185-1.714-.626-2.68-.474-1.04-.522-1.272-.505-2.45.014-.94.136-1.684.44-2.68.905-2.962.87-2.576.913-9.952.022-3.79.127-8.096.234-9.57.146-2.04.152-3.118.022-4.514-.226-2.44-.474-2.922-2.095-4.076-1.16-.825-3.36-2.965-4.237-4.12-.225-.297-.92-1.434-1.546-2.528a862.447 862.447 0 0 0-1.824-3.17c-1.235-2.125-3.522-9.4-3.937-12.522-.172-1.3-.336-1.858-1.207-4.135-.44-1.147-.803-2.578-1.268-4.978-.6-3.107-.66-3.63-.75-6.737-.092-3.1-.153-3.643-.758-6.814-.925-4.85-.813-4.523-1.928-5.622-1.21-1.193-1.2-1.128-1.106-6.204.062-3.425.118-4.103.484-5.91.228-1.125.65-2.8.94-3.724 1-3.19 1.19-4.445 1.195-7.94.004-3.06-.01-3.206-.57-5.818-.907-4.214-1.124-5.593-1.233-7.825-.082-1.687-.206-2.477-.65-4.136-.834-3.13-.92-3.603-1.038-5.735-.13-2.386-.283-3.098-.894-4.2-.662-1.194-2.266-6.657-3.633-12.37-.57-2.38-1.252-3.252-3.872-4.946-1.862-1.206-3.478-1.99-5.618-2.728-2.088-.72-7.15-3.125-8.57-4.07-2.362-1.58-3.166-3.428-2.17-5 .562-.884 2.313-2.373 3.353-2.85.917-.42 3.665-.957 4.895-.957 1.737 0 4.03.483 7.368 1.554l1.937.62 4.058.212c2.232.117 4.575.313 5.206.436a15.04 15.04 0 0 0 2.298.232c.632.004 2.045.114 3.14.244 1.093.13 2.884.302 3.98.382 1.094.08 2.66.31 3.48.508 1.34.324 1.57.433 2.24 1.06.41.383 1.117.884 1.57 1.112.453.228 1.523.822 2.378 1.32 3.113 1.812 4.934 2.37 7.304 2.24 1.428-.078 2.195-.4 3.233-1.357.36-.33.79-.6.956-.6.55 0 5.7 2.586 6.832 3.432 1.285.96 2.225 1.448 3.694 1.916.583.186 1.24.43 1.453.542.613.318 1.55 1.11 1.937 1.632.443.6 1.604 3.36 2.054 4.878.187.632.514 1.493.727 1.914.215.422.56 1.248.77 1.838.368 1.03.384 1.23.413 5.206.035 4.667-.02 4.343 1.417 8.387 1.344 3.787 1.653 4.838 2.018 6.87.534 2.967.667 5.108.582 9.375-.09 4.608-.215 5.365-1.245 7.582-.508 1.096-.765 1.923-1.002 3.233-.556 3.065-1.456 5.092-3.373 7.593-.445.58-.94 1.362-1.1 1.737-.162.375-.95 1.833-1.75 3.24-1.744 3.06-1.755 3.12-1.31 6.723.36 2.904.562 6.097.414 6.562-.07.22-.365.402-.95.586-2.115.667-3.267 2.66-3.267 5.65 0 .69-.15 1.768-.377 2.71-.207.86-.525 2.357-.707 3.326-.182.968-.56 2.56-.84 3.536-.277.977-.687 2.56-.908 3.522-1.127 4.886-1.03 3.9-1.105 11.217-.04 3.692-.027 6.885.026 7.094.052.21.66.98 1.352 1.71.69.733 1.67 1.95 2.176 2.706.754 1.128 1.157 1.552 2.254 2.37.735.546 1.768 1.412 2.297 1.923.528.51 1.237 1.13 1.573 1.373.337.245 1.165.964 1.84 1.598 1.475 1.385 4.84 4.203 5.587 4.68l2.297 1.463a39.236 39.236 0 0 0 3.75 2.047c2.823 1.313 2.592 1.107 2.607 2.328.01.884.1 1.225.58 2.187.504 1.02.563 1.263.563 2.332 0 2.178-.873 3.65-3.764 6.347-1.04.97-1.968 1.982-2.225 2.43-.396.69-.44.904-.44 2.165-.003 2.264-.53 3.58-2.38 5.95-1.36 1.743-2.598 2.554-5.265 3.447-1.492.5-2.55.577-3.217.232-.818-.424-.823-1.03-.025-3.296.387-1.1.813-1.983 1.208-2.506 1.287-1.705 2.143-3.982 1.942-5.168-.1-.598-.203-.724-1.496-1.852-.496-.433-.64-.717-1.003-1.972-.57-1.974-1.036-2.717-2.767-4.43-1.088-1.076-1.82-1.648-2.818-2.2a47.99 47.99 0 0 1-2.808-1.722c-1.327-.887-1.534-.977-2.255-.977-.91 0-1.358.25-1.732.966-.358.688-.32 2.48.085 4.043.18.693.328 1.727.33 2.297.01 1.81.245 2.978.97 4.804.386.976.747 2.158.802 2.626.118 1-.02 1.176-1.32 1.703-1.063.43-1.426 1.044-1.324 2.24.162 1.903 1.432 3.87 3.014 4.672.99.502 1.685 1.116 1.933 1.71.326.78.268 2.433-.113 3.22-.375.774-.722.982-2.654 1.592-1.732.547-2.847.576-3.634.096zm8.428-123.01c.494-.347.744-1.02 1.173-3.175a63.17 63.17 0 0 1 .758-3.292c.564-2.094.53-3.552-.148-6.245-.294-1.164-.85-2.946-1.238-3.956a213.348 213.348 0 0 1-1.44-3.905c-1.12-3.137-1.238-3.407-1.742-3.944-.703-.75-1.45-.645-1.94.27-.09.17-.14 1.702-.123 3.778.015 1.92-.05 4.08-.143 4.795-.093.715-.256 2.25-.362 3.41l-.193 2.11.554 1.644c.305.904.84 2.332 1.19 3.173.35.84.91 2.252 1.244 3.136.83 2.197 1.516 2.825 2.408 2.2z" stroke="#222" stroke-width=".153"/><path d="M928.665 218.246c-1.665-1.02-3.534-2.52-4.25-3.416-1.356-1.69-2.776-2.645-4.857-3.263-1.94-.577-2.355-1.15-2.517-3.463-.09-1.283-.19-1.704-.614-2.603-.726-1.533-.714-2.82.054-5.437.832-2.843.917-3.61.805-7.273-.058-1.885-.017-5.242.1-8.115.223-5.485.208-8.983-.043-10.065-.238-1.026-.877-1.823-2.163-2.695-1.085-.735-2.86-2.454-3.977-3.853-.303-.38-.95-1.413-1.435-2.297a73.517 73.517 0 0 0-1.618-2.78c-.906-1.45-1.005-1.683-2.205-5.182-1.064-3.104-1.812-5.97-2.067-7.92-.17-1.294-.343-1.876-1.27-4.253-.36-.923-.755-2.492-1.19-4.747-.604-3.11-.662-3.628-.753-6.737-.092-3.096-.153-3.648-.755-6.814-.944-4.963-.926-4.91-2.03-5.963l-.932-.89-.157-1.583c-.212-2.152.074-6.783.574-9.29.206-1.034.65-2.79.988-3.906.97-3.202 1.134-4.346 1.135-7.845 0-2.956-.02-3.155-.57-5.742-.968-4.535-1.175-5.822-1.266-7.885-.085-1.94-.31-3.132-1.25-6.685-.18-.685-.35-1.958-.407-3.063-.128-2.485-.31-3.4-.883-4.417-.44-.78-.922-2.205-1.792-5.282-.19-.673-.51-1.786-.71-2.473a67.59 67.59 0 0 1-.813-3.217c-.627-2.765-.99-3.646-1.885-4.594-1.53-1.618-4.91-3.576-8.163-4.728-2.018-.714-6.136-2.6-7.803-3.574-1.157-.676-2.465-1.903-2.865-2.687-.225-.437-.288-.786-.23-1.28.066-.603.21-.817 1.26-1.873 1.47-1.48 2.31-1.914 4.455-2.312 2.84-.527 4.82-.29 9.32 1.12l2.452.767 3.522.13c2.31.087 4.127.24 5.282.443.968.17 2.315.312 2.992.312s2.02.103 2.986.226c.965.125 2.685.297 3.82.384 1.138.087 2.71.32 3.494.518 1.225.31 1.515.447 2.067.982.354.342 1.366 1.015 2.25 1.495.885.48 2.056 1.135 2.604 1.46 2.24 1.32 4.44 1.915 6.637 1.796 1.473-.082 2.31-.41 3.364-1.323.405-.35.832-.638.95-.638.117 0 .727.27 1.356.6.63.332 1.717.85 2.42 1.15.7.303 1.826.968 2.5 1.48 1.472 1.117 2.054 1.427 3.732 1.995 1.577.533 2.41 1.01 3.104 1.778.55.61 1.723 3.198 2.202 4.863.145.506.524 1.505.842 2.22 1.137 2.56 1.11 2.4 1.223 7.35l.102 4.518.696 1.99a674.266 674.266 0 0 0 1.4 3.94c1.073 2.99 1.63 6.263 1.854 10.913.107 2.23-.123 6.214-.448 7.75-.118.554-.5 1.6-.85 2.32-.467.957-.738 1.815-1.012 3.2-.206 1.04-.48 2.27-.613 2.732-.316 1.118-1.404 3.1-2.5 4.56-.49.65-1.11 1.63-1.384 2.177-.272.547-1.125 2.096-1.896 3.442l-1.4 2.446v1.228c0 .677.154 2.443.344 3.926.19 1.484.344 3.29.344 4.016 0 1.465-.055 1.55-1.25 1.93-.888.28-1.858 1.243-2.353 2.335-.37.817-.453 1.248-.543 2.803-.064 1.103-.263 2.48-.5 3.445a77.996 77.996 0 0 0-.707 3.293c-.175.927-.583 2.65-.91 3.828-.685 2.486-1.467 5.84-1.694 7.275-.086.546-.183 4.026-.215 7.73l-.058 6.738.35.613c.194.338.733.94 1.2 1.342.473.407 1.23 1.318 1.717 2.067 1.01 1.55 1.703 2.327 2.668 2.984.38.257 1.137.89 1.684 1.41.547.516 1.49 1.33 2.096 1.81.605.48 1.142.94 1.194 1.024.112.18 3.692 3.25 5.208 4.466.59.473 1.52 1.134 2.067 1.47.55.337 1.585.982 2.304 1.435.72.454 2.062 1.157 2.986 1.563 2.322 1.023 2.274.976 2.3 2.21.02.87.112 1.198.58 2.077.506.945.56 1.16.56 2.238 0 1.067-.06 1.313-.563 2.324-.48.964-.904 1.47-2.89 3.428-1.28 1.263-2.454 2.538-2.607 2.832-.204.392-.305 1.033-.373 2.38-.082 1.636-.146 1.956-.572 2.867-1.015 2.17-2.82 4.222-4.4 5-1.42.7-3.55 1.39-4.284 1.39-.8 0-1.306-.347-1.306-.898 0-.828 1.144-3.584 2.02-4.86 1.34-1.957 2.016-4.12 1.67-5.344-.21-.733-.336-.898-1.275-1.652-.667-.536-.76-.697-1.184-2.067-.904-2.918-2.923-5.162-6.363-7.074-.506-.28-1.466-.89-2.135-1.353-1.334-.924-2.363-1.314-3.07-1.165-.792.166-1.41.647-1.67 1.294-.36.9-.325 3.01.074 4.438.2.72.363 1.915.436 3.212.112 1.983.145 2.136.814 3.752.384.926.744 1.998.8 2.382.12.804.036.912-1.2 1.522-1.154.57-1.402 1.003-1.394 2.432.006 1.03.077 1.33.55 2.323.654 1.376 1.56 2.334 2.885 3.055.565.306 1.135.754 1.33 1.045.698 1.034.595 2.668-.223 3.544-.297.32-.833.575-1.908.913-1.8.565-2.73.597-3.505.122zm8.66-122.156c.61-.537.73-.85 1.147-3.055.168-.884.52-2.434.785-3.445.433-1.657.474-2.003.414-3.522-.072-1.878-.727-4.584-1.732-7.167-.3-.776-1.02-2.74-1.6-4.37-.58-1.63-1.18-3.18-1.334-3.446-.66-1.136-2.14-1.326-2.826-.363-.34.48-.35.57-.303 3.506.032 1.964-.032 3.75-.182 5.13-.502 4.612-.586 5.735-.482 6.427.107.71 1.08 3.396 2.445 6.742.384.943.7 1.79.7 1.882 0 .303.574 1.298.94 1.63.724.654 1.325.67 2.03.05z" stroke="#222" stroke-width=".153" style="fill:#1e1e1e;fill-opacity:1"/><path d="M903.59 32.512c-1.026-.12-1.705-.363-1.96-.698-.14-.183-.194-.498-.14-.814.052-.295.125-.45.363-.776.765-1.042 2.726-2.455 5.424-3.908.642-.346.733-.415.857-.66l.093-.184-.022-.717a34.735 34.735 0 0 0-.404-4.09c-.38-2.376-1.06-4.505-2.086-6.526-.88-1.734-1.922-3.215-3.34-4.742-.526-.567-.58-.758-.26-.92.197-.1 1.81-.653 2.733-.936.963-.298 1.493-.446 3.392-.954 3.786-1.013 5.117-1.41 7.08-2.118 2.713-.978 5.843-2.392 8.786-3.97.424-.23.835-.43.914-.447.29-.065.323-.067.388-.02.11.083.108.313-.01 1.356-.364 3.248-.424 6.47-.163 8.84.316 2.868 1.165 5.2 2.7 7.424.36.518.54.71.77.807.242.104.46.088 1.532-.107 3.36-.613 5.662-.696 7.035-.255.782.252 1.04.623.908 1.31-.046.24-.086.335-.247.575-.273.407-.556.72-.99 1.098-3.162 2.75-10.764 6.28-18.97 8.814-3.7 1.143-7.187 1.965-10.13 2.39-.81.118-1.05.142-2.262.233-.58.043-1.6.04-1.99-.006z"/><path d="M903.716 32.52c-1.273-.236-1.85-.443-2.038-.73-.253-.388-.273-.573-.105-.98.47-1.135 2.507-2.718 5.743-4.46.64-.345.756-.436.887-.704l.097-.197-.023-.652c-.07-2.088-.395-4.435-.87-6.296a20.64 20.64 0 0 0-4.976-9.116c-.31-.334-.47-.615-.413-.723a.43.43 0 0 1 .118-.12c.132-.086.728-.31 1.618-.6 1.434-.473 1.973-.63 4.414-1.283 3.802-1.016 5.17-1.426 7.19-2.153 2.704-.974 5.808-2.375 8.73-3.94.375-.2.767-.394.87-.43.103-.034.177-.074.164-.087-.042-.043.064-.024.17.03.16.083.163.234.04 1.365-.368 3.32-.425 6.36-.165 8.713.322 2.922 1.165 5.242 2.732 7.52.407.59.605.788.883.875.223.072.154.08 2.04-.25 1.52-.268 3.014-.414 4.233-.415.86 0 1.313.037 1.8.15.687.16 1.02.34 1.23.67.113.176.13.23.13.423 0 .122-.018.243-.04.27a.795.795 0 0 0-.08.18c-.057.178-.337.598-.598.898-.57.653-1.843 1.606-3.438 2.573-5.07 3.07-13.812 6.442-21.32 8.225-2.58.612-4.16.893-6.372 1.134-.352.04-.754.085-.892.104-.29.04-1.545.042-1.757.002z"/><path d="M904.093 32.482c-.168-.016-.46-.054-.646-.086-.996-.17-1.39-.32-1.677-.647-.448-.51-.194-1.17.827-2.158.995-.964 2.468-1.943 4.98-3.31.425-.234.584-.36.682-.553.1-.203.115-.468.066-1.264-.225-3.68-.787-6.398-1.852-8.968-.9-2.166-2.014-3.924-3.713-5.852-.295-.336-.483-.58-.522-.683-.06-.152-.06-.164.008-.286.085-.157.238-.24.85-.454 1.264-.445 2.888-.924 5.406-1.596 2.876-.767 3.87-1.053 5.38-1.55 3.33-1.093 6.168-2.33 10.314-4.49.773-.402.957-.427 1.075-.145.07.164.066.32-.036 1.242-.358 3.244-.398 6.448-.107 8.724.333 2.623 1.012 4.623 2.23 6.58.4.643.86 1.278 1.05 1.447.29.262.48.275 1.43.097a45.24 45.24 0 0 1 3.643-.522c.862-.084 2.337-.085 2.885 0 .494.075.96.206 1.197.335.234.127.47.394.525.597.333 1.19-2.466 3.414-7.333 5.83-5.135 2.547-12.047 5.02-17.985 6.434-2.973.708-5.016 1.042-7.8 1.28-.435.035-.44.035-.88-.005z"/><path d="M903.52 32.287c-1.11-.188-1.562-.388-1.76-.776-.422-.828 1.144-2.38 4.233-4.205.267-.157.823-.47 1.238-.697.888-.486 1.036-.596 1.16-.866.09-.196.09-.2.067-.953a32.671 32.671 0 0 0-.583-5.06c-.75-3.77-2.295-7.002-4.664-9.75-.735-.853-.767-.894-.81-1.036-.087-.288.116-.413 1.316-.812 1.43-.474 2.35-.74 5.02-1.456 2.94-.785 4.033-1.105 5.632-1.644 2.778-.938 5.657-2.167 8.48-3.62 1.736-.893 1.878-.962 2.03-.982.13-.016.157-.007.225.08.102.13.1.314-.01 1.362a43.667 43.667 0 0 0-.276 4.985c0 2.51.206 4.358.688 6.152.443 1.65 1.065 3.01 2.064 4.515.6.905.82 1.142 1.132 1.225.2.054.413.03 1.462-.16 1.944-.352 3.55-.525 4.888-.525 1.678 0 2.584.25 2.86.792.303.592-.4 1.547-2.025 2.758-3.214 2.394-9.605 5.34-16.376 7.55-5.09 1.66-9.43 2.674-13.07 3.048-.492.05-1 .108-1.13.126-.426.06-1.264.034-1.792-.056z"/><path d="M903.644 32.192c-1.02-.183-1.42-.322-1.65-.573-.26-.288-.234-.6.087-1.08.687-1.023 2.48-2.34 5.2-3.82.96-.52 1.11-.635 1.24-.95.113-.27.104-.896-.035-2.503-.487-5.66-2.097-9.78-5.257-13.45-.704-.817-.745-.888-.62-1.067.088-.126.325-.226 1.27-.54 1.457-.48 2.1-.665 5.792-1.655 3.162-.848 5.108-1.475 7.405-2.385 2.06-.816 3.506-1.475 5.983-2.728 1.03-.524 1.7-.84 1.766-.84.07 0 .122.026.163.09.073.11.06.5-.053 1.575-.375 3.574-.316 7.023.16 9.504.44 2.29 1.234 4.18 2.554 6.09.434.63.622.84.85.943.263.124.54.11 1.56-.074 4.616-.834 7.507-.72 7.782.3.108.403-.365 1.118-1.23 1.86-3.642 3.12-13.08 7.24-22.08 9.63-3.022.805-5.58 1.3-8.035 1.565-.562.06-1.127.125-1.255.144-.387.056-1.158.037-1.596-.04z"/><path d="M904.146 32.136c-.334-.044-1.397-.27-1.568-.333-.882-.33-.794-.903.3-1.954.85-.814 2.25-1.772 4.07-2.78 1.24-.686 1.31-.73 1.485-.922.298-.326.347-.59.288-1.57-.245-4.144-.917-7.147-2.24-10.024-.736-1.602-1.81-3.266-3.01-4.67-.747-.875-.786-.944-.623-1.094.117-.107.25-.167.73-.333 1.098-.38 2.61-.822 4.91-1.435 3.077-.82 4.373-1.2 6.01-1.753 2.878-.973 5.26-1.993 8.602-3.685 1.024-.518 1.55-.766 1.612-.76a.21.21 0 0 1 .145.108c.05.087.044.196-.045 1.112-.406 4.137-.343 7.385.193 9.99.35 1.704.918 3.24 1.7 4.6.54.94 1.264 1.98 1.506 2.165.38.29.623.3 1.86.077 2.534-.457 4.578-.637 5.9-.52 1.43.126 1.974.528 1.62 1.198-.924 1.76-5.92 4.688-12.444 7.293-6.62 2.644-13.635 4.57-18.506 5.083-.484.05-1.098.124-1.364.162-.444.064-.858.08-1.13.046z"/><path d="M924.498 1.157a.162.162 0 0 0-.055.013c-.025.01-.058.02-.1.038-.08.034-.19.084-.327.148-.276.13-.662.317-1.138.555-2.27 1.134-3.637 1.755-5.505 2.502-2.54 1.015-4.427 1.613-8.748 2.768-1.39.372-2.612.716-3.543.995-.93.28-1.567.492-1.793.606a.592.592 0 0 0-.166.113.16.16 0 0 0-.035.147c.024.112.143.26.364.518 3.274 3.8 4.916 8.052 5.388 13.96.128 1.6.117 2.09-.05 2.455-.082.18-.166.3-.387.463-.22.164-.58.368-1.202.71-1.268.694-2.346 1.373-3.178 1.992-.83.62-1.413 1.178-1.688 1.634-.113.188-.156.344-.12.478.037.134.15.24.34.33.044.02.143.05.277.087.135.036.303.076.48.116.353.08.74.16.955.19.2.027.62-.005 1.076-.08.23-.04.514-.08.63-.09a46.34 46.34 0 0 0 2.268-.274c9.08-1.395 22.447-6.47 27.688-10.52.278-.214.58-.486.838-.743s.467-.497.557-.653c.133-.23.174-.41.106-.56-.067-.147-.237-.253-.514-.34-.404-.128-.726-.167-1.537-.19-1.35-.04-3.066.135-5.326.546a17.32 17.32 0 0 1-.7.115c-.2.028-.357.045-.43.045-.316 0-.537-.05-.77-.234-.235-.183-.482-.5-.844-1.03-1.505-2.215-2.307-4.322-2.705-7.113-.32-2.244-.34-5.042-.054-8.155.07-.76.105-1.14.1-1.334-.003-.097-.014-.15-.043-.18a.09.09 0 0 0-.05-.026c-.02-.004-.04-.003-.063-.003zm0 .035c.022 0 .04 0 .056.003a.055.055 0 0 1 .034.016c.017.016.03.06.032.154.005.19-.03.57-.1 1.33-.286 3.115-.268 5.914.053 8.163.4 2.794 1.203 4.91 2.71 7.127.363.532.61.85.852 1.04.24.186.473.24.794.24.075 0 .23-.017.433-.045.202-.03.448-.07.7-.114 2.26-.41 3.974-.587 5.32-.547.81.022 1.125.062 1.524.19.272.084.433.187.493.32.06.132.026.302-.104.526-.087.15-.295.39-.55.646-.256.256-.56.527-.836.74-5.228 4.04-18.598 9.12-27.67 10.51-.594.09-1.52.203-2.267.273-.12.012-.403.053-.633.09-.456.077-.876.107-1.066.08a12.16 12.16 0 0 1-.95-.188c-.178-.04-.346-.08-.48-.116a2.21 2.21 0 0 1-.272-.084c-.183-.087-.286-.186-.32-.306-.03-.12.005-.267.116-.45.27-.448.85-1.006 1.68-1.624.83-.617 1.907-1.295 3.174-1.99.623-.34.98-.546 1.206-.712.224-.166.314-.294.397-.476.172-.375.182-.873.054-2.474-.474-5.91-2.12-10.175-5.4-13.98-.22-.256-.334-.407-.356-.503a.117.117 0 0 1 .027-.113.528.528 0 0 1 .155-.103c.217-.11.856-.324 1.786-.603.93-.28 2.153-.623 3.543-.995 4.32-1.155 6.21-1.752 8.753-2.768 1.868-.746 3.235-1.368 5.507-2.505.475-.236.86-.425 1.137-.553a6.71 6.71 0 0 1 .33-.148c.04-.017.07-.03.094-.038a.153.153 0 0 1 .044-.012z" style="line-height:normal;-inkscape-font-specification:'Andale Mono';text-indent:0;text-align:start;text-decoration-line:none;text-transform:none;block-progression:tb" overflow="visible" color="#222" font-family="Andale Mono" stroke="#222" stroke-width=".036"/></svg>